<?xml version="1.0" encoding="UTF-8"?>
<!DOCTYPE svg PUBLIC "-//W3C//DTD SVG 1.1//EN" "http://www.w3.org/Graphics/SVG/1.1/DTD/svg11.dtd">
<!-- Creator: CorelDRAW 2018 -->
<svg xmlns="http://www.w3.org/2000/svg" xml:space="preserve" width="70.5757mm" height="70.5756mm" version="1.1" style="shape-rendering:geometricPrecision; text-rendering:geometricPrecision; image-rendering:optimizeQuality; fill-rule:evenodd; clip-rule:evenodd"
viewBox="0 0 3337.06 3337.05"
 xmlns:xlink="http://www.w3.org/1999/xlink">
 <defs>
  <style type="text/css">
   <![CDATA[
    .fil2 {fill:#FEFEFE}
    .fil0 {fill:black}
    .fil1 {fill:#E42D24;fill-rule:nonzero}
   ]]>
  </style>
 </defs>
 <g id="Слой_x0020_1">
  <metadata id="CorelCorpID_0Corel-Layer"/>
  <g id="_-1567214904">
   <path class="fil0" d="M225.05 818.9l299.76 -5.67 0 74.7 -74.7 0 0 74.7 -75.65 0 0 75.65 -149.41 0 0 149.41 -74.7 0 0 75.65 -150.35 0 0 811.33 74.7 0 0 -74.7 150.35 0 0 74.7 149.41 0 0 75.65 -74.7 0 0 74.7 -74.7 0 0 74.7 74.7 0 0 150.35 -74.7 0 0 74.7 74.7 0 0 74.7 -225.05 0 0 75.65 150.35 0 0 74.7 149.41 0 0 -225.05 75.65 0 0 -374.46 137.11 0 0 -150.35 -62.41 0 0 -74.7 62.41 0 0 -74.7 74.7 0 0 74.7 75.65 0 0 -225.05 149.41 0 0 -62.41 -74.7 0 0 -74.7 -150.35 0 0 -75.65 -74.7 0 0 -74.7 225.05 0 0 74.7 74.7 0 0 75.65 150.35 0 0 74.7 74.7 0 0 137.11 -74.7 0 0 225.05 -75.65 0 0 74.7 150.35 0 0 -149.41 74.7 0 -0.95 74.7 156.97 0 0 -74.7 -6.62 -74.7 226 0 0 74.7 74.7 0 0 -74.7 212.77 0 0 149.41 74.7 0 0 -225.05 74.7 0 0 -137.11 74.7 0 0 137.11 75.65 0 0 -74.7 149.41 0 0 -287.46 75.65 0 0 74.7 74.7 0 0 -224.11 -74.7 0 0 74.7 -150.35 0 0 -74.7 -74.7 0 0 74.7 -75.65 0 0 74.7 -74.7 0 0 74.7 -74.7 0 0 -74.7 -74.7 0 0 -149.41 74.7 0 0 -75.65 74.7 0 0 75.65 74.7 0 0 -150.35 75.65 0 0 74.7 74.7 0 0 -149.41 150.35 0 0 -75.65 74.7 0 0 -74.7 299.76 0 0 74.7 -74.7 0 0 225.05 137.11 0 0 75.65 150.35 0 0 -150.35 74.7 0 0 -74.7 -225.05 0 0 -75.65 225.05 0 0 -149.41 -150.35 0 0 -74.7 375.41 0 0 -75.65 -75.65 0 0 -74.7 -74.7 0 0 74.7 -74.7 0 0 -74.7 -74.7 0 0 74.7 -75.65 0 0 -74.7 -74.7 0 0 150.35 -62.41 0 0 -75.65 -74.7 0 0 -74.7 -75.65 0 0 -137.12 -74.7 0 0 74.7 -74.7 0 0 -74.7 -74.7 0 0 74.7 -75.65 0 0 -74.7 -225.05 0 0 -150.35 -74.7 0 0 -74.7 -149.41 0 0 -74.7 -75.65 0 0 -75.65 -74.7 0 0 -74.7 -137.12 0 0 299.76 -75.65 0 0 225.05 -74.7 0 0 -74.7 -74.7 0 0 74.7 -74.7 0 0 -150.35 149.41 0 0 -149.41 74.7 0 0 -74.7 -149.41 0 0 -75.65 74.7 0 0 -74.7 -299.76 0 0 150.35 74.7 0 0 -75.65 75.65 0 0 150.35 -225.05 0 0 -74.7 -75.65 0 0 74.7 -74.7 0 0 -74.7 -74.7 0 0 -75.65 -150.35 0 0 75.65 -74.7 0 0 74.7 74.7 0 0 74.7 -74.7 0 0 74.7 74.7 0 0 75.65 -74.7 0 0 137.12 150.35 0 0 74.7 -75.65 0 0 75.65 -74.7 0 0 -75.65 -62.41 0 0 -74.7 -150.35 0 0 150.35 -149.41 0 0 80.37zm2449.13 1705.88l-75.65 0 0 -74.7 -74.7 0 0 149.41 -149.41 0 0 -74.7 -150.35 0 0 225.05 74.7 0 0 62.41 150.35 0 0 -62.41 149.41 0 0 62.41 75.65 0 0 225.05 211.82 0 0 149.41 150.35 0 0 -224.11 225.05 0 0 74.7 -150.35 0 0 225.05 74.7 0 0 -75.65 150.35 0 0 -1336.14 -299.76 0 0 -150.35 74.7 0 0 74.7 74.7 0 0 -74.7 75.65 0 0 -62.41 -75.65 0 0 -74.7 -74.7 0 0 -75.65 150.35 0 0 -74.7 -225.05 0 0 -74.7 -150.35 0 0 74.7 75.65 0 0 74.7 -287.46 0 0 75.65 -150.35 0 0 137.11 74.7 0 0 -62.41 75.65 0 0 137.11 -75.65 0 0 150.35 -74.7 0 0 149.41 74.7 0 0 300.7 75.65 0 0 149.41zm-1331.42 -524.81l-5.67 150.35 -74.7 0 0 -75.65 -75.65 0 0 75.65 -225.05 0 0 149.41 75.65 0 0 -74.7 149.41 0 0 74.7 -74.7 0 0 75.65 -74.7 0 0 224.11 74.7 0 0 75.65 74.7 0 0 74.7 150.35 0 0 212.76 74.7 0 0 74.7 -149.41 0 0 149.41 -150.35 0 0 150.35 661.93 0 0 -150.35 150.35 0 0 75.65 74.7 0 0 74.7 299.76 0 0 -150.35 -149.41 0 0 -74.7 -75.65 0 0 -74.7 -74.7 0 0 74.7 -225.05 0 0 -74.7 150.35 0 0 -74.7 74.7 0 0 -75.65 74.7 0 0 -74.7 75.65 0 0 -287.46 -75.65 0 0 -74.7 -74.7 0 0 -74.7 -74.7 0 0 299.76 74.7 0 0 -75.65 74.7 0 0 150.35 -149.41 0 0 62.41 -74.7 0 0 -137.11 -75.65 0 0 -75.65 75.65 0 0 -74.7 -287.47 0 0 -225.05 -75.65 0 0 -149.41 -74.7 0 0 -75.65 150.35 0 0 -74.7 -75.65 0 0 -74.7 -143.73 0 0 74.7zm1993.34 -1474.21l0 -524.81 -524.81 0 0 524.81 524.81 0zm-3336.11 2811.29l524.81 0 0 -524.81 -524.81 0 0 524.81zm0 -2811.29l524.81 0 0 -524.81 -524.81 0 0 524.81zm450.11 1999.02l0 74.7 137.11 0 0 75.65 74.7 0 0 -150.35 225.05 0 0 150.35 -74.7 0 0 -75.65 -74.7 0 0 150.35 299.76 0 0 -74.7 -75.65 0 0 -225.05 -74.7 0 0 -74.7 74.7 0 0 -75.65 -74.7 0 0 -149.41 -149.41 0 0 -75.65 -75.65 0 0 150.35 75.65 0 0 74.7 74.7 0 0 150.35 -74.7 0 0 -74.7 -150.35 0 0 149.41 -137.11 0zm1323.85 -1711.55l0 74.7 75.65 0 0 74.7 -150.35 0 0 75.65 -362.17 0 0 -75.65 -74.7 0 0 150.35 149.41 0 0 74.7 74.7 0 0 75.65 150.35 0 0 -150.35 137.12 0 0 -74.7 150.35 0 0 -150.35 74.7 0 0 -74.7 -74.7 0 0 -74.7 74.7 0 0 -75.65 -74.7 0 0 -211.82 -74.7 0 0 362.17 -75.65 0zm-1699.26 -362.17l375.41 0 0 -375.41 -375.41 0 0 375.41zm2811.29 0l375.41 0 0 -375.41 -375.41 0 0 375.41zm-2811.29 2811.29l375.41 0 0 -375.41 -375.41 0 0 375.41zm587.22 74.7l299.76 0 0 -74.7 -74.7 0 0 -150.35 74.7 0 0 74.7 150.35 0 0 -74.7 -74.7 0 0 -149.41 74.7 0 0 -75.65 -74.7 0 0 -74.7 -75.65 0 0 74.7 -74.7 0 0 -74.7 -74.7 0 0 74.7 -225.05 0 0 75.65 225.05 0 0 149.41 -74.7 0 0 74.7 74.7 0 0 75.65 -150.35 0 0 74.7zm450.11 -2224.07l0 -150.35 74.7 0 0 -74.7 -74.7 0 0 -299.76 -150.35 0 0 -62.41 -74.7 0 0 62.41 -74.7 0 0 150.35 74.7 0 0 -75.65 74.7 0 0 299.76 75.65 0 0 75.65 -75.65 0 0 74.7 150.35 0zm1924.31 737.57l-150.35 0 0 74.7 -211.82 0 0 74.7 137.11 0 0 150.35 -62.41 0 0 74.7 137.11 0 0 -74.7 75.65 0 0 -75.65 149.41 0 0 -74.7 -74.7 0 0 -149.41zm-512.52 -1849.61l-299.76 0 0 74.7 74.7 0 0 75.65 -74.7 0 0 224.11 150.35 0 0 -74.7 -75.65 0 0 -74.7 75.65 0 0 -74.7 74.7 0 0 74.7 74.7 0 0 -225.05zm-1037.34 2298.77l-224.11 0 0 75.65 -75.65 0 0 74.7 75.65 0 0 225.05 224.11 0 0 -150.35 -149.41 0 0 -149.41 149.41 0 0 -75.65zm-374.46 -1036.38l-74.7 0 0 -75.65 -225.05 0 0 75.65 -74.7 0 0 74.7 224.11 0 0 74.7 225.05 0 0 -74.7 -74.7 0 0 -74.7zm1112.04 -600.46l74.7 0 0 75.65 -74.7 0 0 74.7 225.05 0 0 -74.7 74.7 0 0 -150.35 -299.76 0 0 74.7zm-225.05 1262.39l150.35 0 0 74.7 74.7 0 0 74.7 150.35 0 0 -74.7 74.7 0 0 -149.41 -74.7 0 0 74.7 -150.35 0 0 -74.7 -225.05 0 0 74.7zm299.76 1261.44l150.35 0 0 -74.7 -74.7 0 0 -225.05 -75.65 0 0 -74.7 -74.7 0 0 150.35 -74.7 0 0 74.7 149.41 0 0 149.41zm-2148.42 -2811.29l224.11 0 0 -224.11 -224.11 0 0 224.11zm2811.29 0l224.11 0 0 -224.11 -224.11 0 0 224.11zm-2811.29 2811.29l224.11 0 0 -224.11 -224.11 0 0 224.11zm1036.38 -2298.77l75.65 0 0 -74.7 74.7 0 0 74.7 74.7 0 0 -149.41 -74.7 0 0 -150.35 -74.7 0 0 -62.41 -75.65 0 0 137.12 75.65 0 0 75.65 -75.65 0 0 149.41zm-524.81 150.35l-74.7 0 0 74.7 -137.11 0 0 74.7 137.11 0 0 75.65 -212.76 0 0 74.7 287.46 0 0 -299.76zm2086.96 1924.31l212.76 0 0 -212.76 -212.76 0 0 212.76zm0 -1187.68l212.76 0 0 -211.82 -212.76 0 0 211.82zm-1186.74 1187.68l211.82 0 0 -212.76 -211.82 0 0 212.76zm0 -2374.42l211.82 0 0 -212.77 -211.82 0 0 212.77zm-1187.68 1186.74l212.76 0 0 -211.82 -212.76 0 0 211.82zm1187.68 0l211.82 0 0 -211.82 -211.82 0 0 211.82zm-150.35 -211.82l-74.7 0 0 -75.65 -74.7 0 0 150.35 149.41 0 0 137.11 74.7 0 0 -362.17 -74.7 0 0 150.35zm1262.39 961.68l0 74.7 211.82 0 0 -74.7 75.65 0 0 -149.41 -150.35 0 0 74.7 -62.41 0 0 74.7 -74.7 0zm436.87 -1261.44l225.05 0 0 -225.05 -150.35 0 0 149.41 -74.7 0 0 75.65zm-512.52 -962.63l-74.7 0 0 74.7 225.05 0 0 -149.41 -74.7 0 0 -150.35 -75.65 0 0 225.05zm-1336.15 2886l0 75.65 149.41 0 0 -75.65 150.35 0 0 -149.41 -75.65 0 0 74.7 -149.41 0 0 74.7 -74.7 0zm436.87 -886.98l-62.41 0 0 150.35 62.41 0 0 -74.7 74.7 0 0 74.7 75.65 0 0 -150.35 -75.65 0 0 -74.7 -74.7 0 0 74.7zm599.52 75.65l-74.7 0 0 -75.65 -74.7 0 0 -74.7 -75.65 0 0 150.35 75.65 0 0 74.7 149.41 0 0 -74.7zm-2073.72 -675.16l-74.7 0 0 74.7 149.41 0 0 -287.46 -74.7 0 0 212.76zm-225.05 675.16l74.7 0 0 74.7 150.35 0 0 -74.7 -74.7 0 0 -75.65 -150.35 0 0 75.65zm1112.03 -1112.03l150.35 0 0 -150.35 -150.35 0 0 150.35zm-450.11 -225.05l75.65 0 0 -225.05 -150.35 0 0 74.7 74.7 0 0 150.35zm2523.83 0l150.35 0 0 -225.05 -74.7 0 0 149.41 -75.65 0 0 75.65zm-224.11 1337.09l149.41 0 0 -75.65 74.7 0 0 -74.7 -149.41 0 0 74.7 -74.7 0 0 75.65zm-812.28 -2374.42l-225.05 0 0 74.7 74.7 0 0 75.65 74.7 0 0 -75.65 75.65 0 0 -74.7zm-1262.39 524.81l0 -150.35 -74.7 0 0 -74.7 -74.7 0 0 150.35 74.7 0 0 74.7 74.7 0zm2374.42 886.98l74.7 0 0 -149.41 -225.05 0 0 74.7 150.35 0 0 74.7zm-737.57 -299.76l-74.7 0 0 74.7 74.7 0 0 75.65 74.7 0 0 -225.05 -74.7 0 0 74.7zm512.52 0l0 150.35 74.7 0 0 -75.65 74.7 0 0 -149.41 -74.7 0 0 74.7 -74.7 0zm-1849.61 -587.23l0 -225.05 -149.41 0 0 74.7 74.7 0 0 150.35 74.7 0zm662.87 1474.21l-75.65 0 0 -74.7 -137.12 0 0 74.7 62.41 0 0 74.7 150.35 0 0 -74.7zm1186.74 886.98l74.7 0 0 -137.11 74.7 0 0 -74.7 -149.41 0 0 211.82zm-1262.39 -2073.72l0 -74.7 -74.7 0 0 -75.65 -137.12 0 0 75.65 74.7 0 0 74.7 137.12 0zm-1773.96 -74.7l74.7 0 0 74.7 75.65 5.67 0 -156.02 -150.35 0 0 75.65zm2298.77 1636.85l150.35 0 0 -150.35 -74.7 0 0 74.7 -75.65 0 0 75.65zm-74.7 -1337.09l0 -150.35 -74.7 0 0 74.7 -75.65 0 0 75.65 150.35 0zm-1411.8 149.41l0 -74.7 74.7 0 0 -74.7 -149.41 0 0 149.41 74.7 0zm1999.02 75.65l-137.11 0 0 74.7 74.7 0 0 74.7 62.41 0 0 -149.41zm-662.87 -812.28l75.65 0 0 -75.65 -75.65 0 0 75.65zm-74.7 -150.35l75.65 0 0 -75.65 -75.65 0 0 75.65zm300.7 0l75.65 0 0 -75.65 -75.65 0 0 75.65zm74.7 150.35l75.65 0 0 -75.65 -75.65 0 0 75.65zm224.1 75.65l75.65 0 0 -75.65 -75.65 0 0 75.65zm0.95 -451.05l75.65 0 0 -75.65 -75.65 0 0 75.65zm587.22 587.23l75.65 0 0 -75.65 -75.65 0 0 75.65zm-151.3 226l75.65 0 0 -75.65 -75.65 0 0 75.65z"/>
   <g>
    <path class="fil1" d="M1293.22 1436.19c0,-78.97 64.01,-142.98 142.98,-142.98l464.67 0c78.96,0 142.97,64.01 142.97,142.98l0 464.67c0,78.97 -64.01,142.98 -142.97,142.98l-464.67 0c-78.97,0 -142.98,-64.01 -142.98,-142.98l0 -464.67z"/>
    <path class="fil2" d="M1668.53 1418.32c137.85,0 249.62,110.41 250.2,246.83l0 2.15c-0.25,60.66 -22.57,116.14 -59.35,159.1 -1.34,-0.68 -3.76,-2.85 -8.18,-9.44 -4.56,-6.63 -43.88,-67.18 -43.88,-136.56 0,-13.62 19.63,-34.9 36.99,-53.56l0.38 -0.4c12.84,-13.91 24.95,-27.01 29.44,-37.33 5.76,-13.44 1.74,-22.83 -4.65,-26.01 -5.78,-2.83 -14.46,-0.77 -20.55,10.05 -9.99,17.49 -13.18,20.77 -27.76,32.46 -14.34,11.71 -37.13,23.5 -37.13,8.26 0,-5.56 5.8,-15.89 11.48,-26.01 2.74,-4.88 5.46,-9.71 7.5,-13.95 6.4,-13.23 -0.52,-22.79 -13.73,-22.79 -25.98,0 -43.22,33.08 -43.22,44.55 0,5.52 1.28,8.74 2.62,12.11 1.44,3.63 2.94,7.4 2.94,14.31 0,13.45 -28.51,30.88 -55.35,30.88 -27.02,0 -42.18,-5.72 -47.84,-22.03l-1.79 -5.33 -0.29 -0.87c-6.21,-18.17 -10.77,-31.45 -18.6,-45.34 -4.12,-7.3 -10.46,-12.42 -16.01,-16.89l-0.35 -0.29c-7.37,-5.71 -11.19,-10.97 -11.99,-14.9 -0.73,-3.91 -1.13,-11.25 11.46,-28.17 12.56,-16.84 14.31,-29.56 8.03,-36.12 -2.28,-2.34 -6.15,-3.83 -11.14,-3.83 -8.84,0 -21.1,4.68 -33.72,17.52 -15.34,15.7 -11.92,30.79 -9.68,40.65 0.63,2.78 1.19,5.12 1.19,6.96 0,8.38 -3.62,13.14 -15.39,24.54 -11.89,11.46 -15.98,21.27 -17.33,60.74 -0.53,20.35 -4.1,32.04 -7.33,42.43 -2.78,9.09 -5.32,17.64 -5.47,30.01 -0.22,13.69 2.06,22.51 4.72,32.7 2.62,9.4 5.39,20.2 7.16,38.23 3.06,30.26 1.66,55.44 -4.66,81.68l-0.33 1.74 -0.06 0.26c-1.06,4.19 -2.3,9.17 -3.94,11.05 -63.33,-44.99 -104.61,-118.44 -104.61,-201.47 0,-136.92 112.01,-247.92 250.2,-247.92zm11.67 268.2c-12.44,-1.94 -21.63,-0.13 -28.09,5.33 -16.67,14.19 -16.39,53.75 -16.05,99.64l0.07 12.99c0.21,45.5 0.47,84.84 11.08,102.11 3.4,5.52 9.78,9.56 18.3,11.98 0.23,0.01 0.45,0.01 0.69,0.03 0.4,0.01 0.79,0.01 1.18,0.03 1.59,0.06 3.16,0.12 4.77,0.12 21.05,0 41.5,-2.61 61.05,-7.41 8.09,-3.92 13.94,-8.58 15.96,-13.46 1.19,-3.16 1.87,-8.93 1.87,-16.43 0,-29.7 -8.72,-86.4 -13.05,-114.41l-0.13 -0.84 -2.18 -14.51 -0.4 -2.87 -0.03 -0.13c-3.65,-25.74 -7.78,-54.84 -55.05,-62.15zm-80.41 183.29c-1.26,-36.19 -7.5,-83.93 -17.21,-83.38 -10.46,0.65 -14.45,55.12 -9.85,91.46 1.48,11.57 3.87,20.4 6.94,26.02 4.63,1.88 9.34,3.6 14.12,5.19 4.24,-3.72 6.87,-14.08 6,-39.29zm226.1 -12.03c2.25,-11.54 -25.08,-76.79 -40.34,-69.42 -11.71,5.81 -7.18,72.48 4.93,93.74 1.26,2.13 3.84,2.47 6.75,1.99 9.12,-5.5 17.84,-11.61 26.14,-18.27 1.04,-2.17 1.9,-4.72 2.52,-8.03z"/>
   </g>
  </g>
 </g>
</svg>
