<?xml version="1.0" encoding="UTF-8"?>
<!DOCTYPE svg PUBLIC "-//W3C//DTD SVG 1.1//EN" "http://www.w3.org/Graphics/SVG/1.1/DTD/svg11.dtd">
<!-- Creator: CorelDRAW 2018 -->
<svg xmlns="http://www.w3.org/2000/svg" xml:space="preserve" width="368.903mm" height="46.3517mm" version="1.1" style="shape-rendering:geometricPrecision; text-rendering:geometricPrecision; image-rendering:optimizeQuality; fill-rule:evenodd; clip-rule:evenodd"
viewBox="0 0 10559.1 1326.72"
 xmlns:xlink="http://www.w3.org/1999/xlink">
 <defs>
  <style type="text/css">
   <![CDATA[
    .fil0 {fill:black}
    .fil1 {fill:black;fill-rule:nonzero}
   ]]>
  </style>
 </defs>
 <g id="Слой_x0020_1">
  <metadata id="CorelCorpID_0Corel-Layer"/>
  <g id="_1517571336">
   <g>
    <path class="fil0" d="M5181.01 0l218.11 0 0 1314.71 -218.11 0 0 -1314.71zm-2238.64 0l218.11 0 0 1028.48c0,157.65 -128.58,286.23 -286.23,286.23l-975.5 0c-157.65,0 -286.23,-128.58 -286.23,-286.23l0 -1028.48 218.11 0 0 1010.73c0,47.29 38.58,85.87 85.87,85.87l940 0c47.29,0 85.87,-38.58 85.87,-85.87l0 -1010.73zm1667.66 548.3l-1238.27 0 0 218.11 1238.27 0c78.71,0 143.11,64.4 143.11,143.11l0 43.96c0,78.71 -64.4,143.11 -143.11,143.11l-1238.27 -0 0 218.11 1225.88 0c204.65,0 372.1,-167.45 372.1,-372.1l0 -22.22c0,-102.45 -41.96,-195.58 -109.55,-263.04 67.59,-67.46 109.55,-160.59 109.55,-263.04l0 -22.22c0,-204.65 -167.44,-372.1 -372.1,-372.1l-1225.88 0 0 218.11 1238.27 0c78.71,0 143.11,64.4 143.11,143.11l0 43.96c0,78.71 -64.4,143.11 -143.11,143.11z"/>
    <path class="fil0" d="M7011.65 0l-218.11 0 0 1314.71 218.11 0 0 -1314.71zm-7011.65 0l218.11 0 0 1314.71 -218.11 0 0 -1314.71zm1090.54 0c119.15,0 238.3,0 357.46,0 -273.15,219.12 -546.3,438.24 -819.46,657.36 273.15,219.12 546.3,438.24 819.46,657.35 -119.15,0 -238.3,0 -357.46,0 -273.15,-219.12 -546.3,-438.24 -819.46,-657.35 273.15,-219.12 546.3,-438.24 819.46,-657.36zm4830.58 0c-119.15,0 -238.3,0 -357.46,0 273.15,219.12 546.3,438.24 819.46,657.36 -273.15,219.12 -546.3,438.24 -819.46,657.35 119.15,0 238.3,0 357.46,0 273.15,-219.12 546.3,-438.24 819.46,-657.35 -273.15,-219.12 -546.3,-438.24 -819.46,-657.36z"/>
   </g>
   <path class="fil1" d="M7361.7 1326.72c-38.91,0 -72.1,-13.45 -99.56,-40.34 -27.46,-26.89 -41.2,-60.94 -41.2,-102.14 0,-42.34 13.45,-76.67 40.34,-102.99 26.89,-26.32 60.37,-39.48 100.42,-39.48 40.06,0 73.53,13.16 100.42,39.48 26.89,26.32 40.34,60.65 40.34,102.99 0,41.2 -13.73,75.24 -41.2,102.14 -27.47,26.89 -60.65,40.34 -99.56,40.34zm756.24 0c-74.39,0 -147.05,-9.73 -218,-29.18 -70.95,-19.46 -127.6,-44.06 -169.94,-73.81l82.4 -163.08c41.2,27.47 90.69,49.49 148.48,66.09 57.79,16.6 114.72,24.89 170.8,24.89 128.17,0 192.26,-33.76 192.26,-101.28 0,-32.04 -16.31,-54.36 -48.92,-66.95 -32.62,-12.59 -84.97,-24.6 -157.07,-36.05 -75.53,-11.44 -137.04,-24.6 -184.53,-39.48 -47.49,-14.88 -88.69,-40.91 -123.59,-78.1 -34.9,-37.19 -52.35,-88.98 -52.35,-155.35 0,-86.97 36.33,-156.5 109,-208.57 72.67,-52.07 170.8,-78.1 294.39,-78.1 62.94,0 125.88,7.15 188.83,21.46 62.94,14.3 114.44,33.47 154.49,57.5l-82.4 163.08c-77.82,-45.78 -165.36,-68.66 -262.64,-68.66 -62.94,0 -110.72,9.44 -143.34,28.32 -32.62,18.88 -48.92,43.77 -48.92,74.67 0,34.33 17.45,58.65 52.35,72.96 34.91,14.3 88.98,27.75 162.22,40.34 73.24,11.44 133.32,24.6 180.24,39.48 46.92,14.88 87.26,40.05 121.02,75.53 33.76,35.48 50.64,85.83 50.64,151.06 0,85.83 -37.19,154.49 -111.58,205.99 -74.39,51.5 -175.66,77.24 -303.84,77.24zm1274.65 -61.8c-25.18,20.6 -55.79,36.05 -91.84,46.35 -36.05,10.3 -74.1,15.45 -114.15,15.45 -100.7,0 -178.52,-26.32 -233.45,-78.96 -54.93,-52.64 -82.4,-129.32 -82.4,-230.02l0 -441.16 -151.06 0 0 -171.66 151.06 0 0 -209.42 214.58 0 0 209.42 245.47 0 0 171.66 -245.47 0 0 436.01c0,44.63 10.87,78.68 32.61,102.14 21.74,23.46 53.22,35.19 94.41,35.19 48.06,0 88.12,-12.59 120.16,-37.77l60.08 152.78zm1166.51 -1223.92l0 1273.71 -205.99 0 0 -118.44c-35.48,43.49 -79.25,76.1 -131.32,97.84 -52.07,21.74 -109.57,32.62 -172.52,32.62 -88.12,0 -167.37,-19.46 -237.75,-58.36 -70.38,-38.91 -125.6,-94.13 -165.65,-165.65 -40.06,-71.52 -60.08,-153.63 -60.08,-246.33 0,-92.7 20.03,-174.52 60.08,-245.47 40.05,-70.95 95.27,-125.88 165.65,-164.79 70.38,-38.91 149.63,-58.37 237.75,-58.37 60.65,0 116.16,10.3 166.51,30.9 50.35,20.6 93.27,51.5 128.75,92.7l0 -470.34 214.57 0zm-484.08 1102.05c51.5,0 97.84,-11.73 139.04,-35.19 41.2,-23.46 73.81,-56.93 97.84,-100.42 24.03,-43.49 36.05,-93.84 36.05,-151.06 0,-57.22 -12.02,-107.57 -36.05,-151.06 -24.03,-43.49 -56.65,-76.96 -97.84,-100.42 -41.2,-23.46 -87.55,-35.19 -139.04,-35.19 -51.5,0 -97.84,11.73 -139.04,35.19 -41.2,23.46 -73.81,56.93 -97.84,100.42 -24.03,43.49 -36.05,93.84 -36.05,151.06 0,57.22 12.02,107.57 36.05,151.06 24.03,43.49 56.64,76.96 97.84,100.42 41.2,23.46 87.55,35.19 139.04,35.19z"/>
  </g>
 </g>
</svg>
