<?xml version="1.0" encoding="UTF-8"?>
<!DOCTYPE svg PUBLIC "-//W3C//DTD SVG 1.1//EN" "http://www.w3.org/Graphics/SVG/1.1/DTD/svg11.dtd">
<!-- Creator: CorelDRAW 2018 -->
<svg xmlns="http://www.w3.org/2000/svg" xml:space="preserve" width="195.211mm" height="126.585mm" version="1.1" style="shape-rendering:geometricPrecision; text-rendering:geometricPrecision; image-rendering:optimizeQuality; fill-rule:evenodd; clip-rule:evenodd"
viewBox="0 0 2329.45 1510.54"
 xmlns:xlink="http://www.w3.org/1999/xlink">
 <defs>
  <style type="text/css">
   <![CDATA[
    .fil0 {fill:#2B2A29}
    .fil1 {fill:#2B2A29;fill-rule:nonzero}
   ]]>
  </style>
 </defs>
 <g id="Слой_x0020_1">
  <metadata id="CorelCorpID_0Corel-Layer"/>
  <path class="fil0" d="M-0 0l164.43 0 0 991.16 -164.43 0 0 -991.16zm2329.45 0l-164.43 0 0 991.16 164.43 0 0 -991.16zm-822.16 0c-89.83,0 -179.66,0 -269.49,0 205.93,165.19 411.86,330.39 617.79,495.58 -205.93,165.19 -411.86,330.39 -617.79,495.58 89.83,0 179.66,0 269.49,0 205.93,-165.19 411.86,-330.39 617.79,-495.58 -205.93,-165.19 -411.86,-330.39 -617.79,-495.58zm-685.14 0c89.83,0 179.66,0 269.49,0 -205.93,165.19 -411.86,330.39 -617.79,495.58 205.93,165.19 411.86,330.39 617.79,495.58 -89.83,0 -179.66,0 -269.49,0 -205.93,-165.19 -411.86,-330.39 -617.79,-495.58 205.93,-165.19 411.86,-330.39 617.79,-495.58z"/>
  <path class="fil1" d="M579.37 1510.54c-9.97,0 -18.48,-3.45 -25.52,-10.34 -7.04,-6.89 -10.56,-15.62 -10.56,-26.18 0,-10.85 3.45,-19.66 10.34,-26.4 6.89,-6.75 15.48,-10.12 25.74,-10.12 10.27,0 18.85,3.37 25.74,10.12 6.89,6.75 10.34,15.55 10.34,26.4 0,10.56 -3.52,19.29 -10.56,26.18 -7.04,6.89 -15.55,10.34 -25.52,10.34zm322.9 0c-19.07,0 -37.7,-2.49 -55.88,-7.48 -18.19,-4.99 -32.71,-11.29 -43.57,-18.92l21.12 -41.8c10.56,7.04 23.25,12.69 38.06,16.94 14.82,4.25 29.41,6.38 43.79,6.38 32.86,0 49.28,-8.65 49.28,-25.96 0,-8.21 -4.18,-13.94 -12.54,-17.16 -8.36,-3.23 -21.78,-6.31 -40.27,-9.24 -19.36,-2.93 -35.13,-6.31 -47.3,-10.12 -12.18,-3.81 -22.74,-10.49 -31.68,-20.02 -8.95,-9.53 -13.42,-22.81 -13.42,-39.82 0,-22.3 9.31,-40.12 27.94,-53.47 18.63,-13.35 43.79,-20.02 75.47,-20.02 16.13,0 32.27,1.83 48.4,5.5 16.14,3.67 29.34,8.58 39.61,14.74l-21.12 41.8c-19.95,-11.73 -42.39,-17.6 -67.33,-17.6 -16.14,0 -28.38,2.42 -36.74,7.26 -8.36,4.84 -12.54,11.22 -12.54,19.14 0,8.8 4.47,15.04 13.42,18.7 8.95,3.67 22.81,7.11 41.58,10.34 18.78,2.93 34.18,6.31 46.2,10.12 12.03,3.81 22.37,10.27 31.02,19.36 8.65,9.1 12.98,22 12.98,38.73 0,22 -9.53,39.6 -28.6,52.81 -19.07,13.2 -45.03,19.8 -77.89,19.8zm455.8 -15.84c-6.45,5.28 -14.3,9.24 -23.54,11.88 -9.24,2.64 -19,3.96 -29.26,3.96 -25.82,0 -45.76,-6.75 -59.85,-20.24 -14.08,-13.5 -21.12,-33.15 -21.12,-58.97l0 -113.09 -38.72 0 0 -44 38.72 0 0 -53.69 55.01 0 0 53.69 62.93 0 0 44 -62.93 0 0 111.77c0,11.44 2.79,20.17 8.36,26.18 5.57,6.01 13.64,9.02 24.2,9.02 12.32,0 22.59,-3.23 30.8,-9.68l15.4 39.16zm428.08 -313.75l0 326.52 -52.81 0 0 -30.36c-9.1,11.15 -20.32,19.51 -33.67,25.08 -13.35,5.57 -28.09,8.36 -44.22,8.36 -22.59,0 -42.91,-4.99 -60.95,-14.96 -18.04,-9.97 -32.2,-24.13 -42.46,-42.47 -10.27,-18.34 -15.4,-39.38 -15.4,-63.15 0,-23.76 5.13,-44.74 15.4,-62.93 10.27,-18.19 24.42,-32.27 42.46,-42.25 18.04,-9.97 38.36,-14.96 60.95,-14.96 15.55,0 29.78,2.64 42.69,7.92 12.91,5.28 23.91,13.2 33,23.76l0 -120.57 55.01 0zm-124.09 282.51c13.2,0 25.08,-3.01 35.65,-9.02 10.56,-6.01 18.92,-14.59 25.08,-25.74 6.16,-11.15 9.24,-24.05 9.24,-38.72 0,-14.67 -3.08,-27.58 -9.24,-38.72 -6.16,-11.15 -14.52,-19.73 -25.08,-25.74 -10.56,-6.01 -22.44,-9.02 -35.65,-9.02 -13.2,0 -25.08,3.01 -35.64,9.02 -10.56,6.01 -18.92,14.6 -25.08,25.74 -6.16,11.15 -9.24,24.06 -9.24,38.72 0,14.67 3.08,27.58 9.24,38.72 6.16,11.15 14.52,19.73 25.08,25.74 10.56,6.01 22.44,9.02 35.64,9.02z"/>
 </g>
</svg>
