<?xml version="1.0" encoding="UTF-8"?>
<svg xmlns="http://www.w3.org/2000/svg" viewBox="0 0 2329.45 991.16">
 <path fill="#101A33" d="M-0 0l164.43 0 0 991.16 -164.43 0 0 -991.16zm2329.45 0l-164.43 0 0 991.16 164.43 0 0 -991.16zm-822.16 0c-89.83,0 -179.66,0 -269.49,0 205.93,165.19 411.86,330.39 617.79,495.58 -205.93,165.19 -411.86,330.39 -617.79,495.58 89.83,0 179.66,0 269.49,0 205.93,-165.19 411.86,-330.39 617.79,-495.58 -205.93,-165.19 -411.86,-330.39 -617.79,-495.58zm-685.14 0c89.83,0 179.66,0 269.49,0 -205.93,165.19 -411.86,330.39 -617.79,495.58 205.93,165.19 411.86,330.39 617.79,495.58 -89.83,0 -179.66,0 -269.49,0 -205.93,-165.19 -411.86,-330.39 -617.79,-495.58 205.93,-165.19 411.86,-330.39 617.79,-495.58z"/>
</svg>
